<?xml version="1.0" encoding="UTF-8"?>
<!DOCTYPE svg PUBLIC "-//W3C//DTD SVG 1.1//EN" "http://www.w3.org/Graphics/SVG/1.1/DTD/svg11.dtd">
<!-- Creator: CorelDRAW 2020 (64-Bit) -->
<svg xmlns="http://www.w3.org/2000/svg" xml:space="preserve" width="150px" height="100px" version="1.1" style="shape-rendering:geometricPrecision; text-rendering:geometricPrecision; image-rendering:optimizeQuality; fill-rule:evenodd; clip-rule:evenodd"
viewBox="0 0 150 100"
 xmlns:xlink="http://www.w3.org/1999/xlink"
 xmlns:xodm="http://www.corel.com/coreldraw/odm/2003">
 <defs>
  <style type="text/css">
   <![CDATA[
    .fil0 {fill:black}
   ]]>
  </style>
 </defs>
 <g id="Layer_x0020_1">
  <metadata id="CorelCorpID_0Corel-Layer"/>
  <g id="_2377324680256">
   <path class="fil0" d="M119.28 64.67c4.06,-2.2 13.66,-12.93 16.12,-17.29 -2.83,-5.99 -18.7,-18.09 -23.92,-22.13 5.22,9.38 8.18,22.99 3.79,35.61 0.09,0.74 3.27,3.37 4.01,3.81zm-106.34 -17.29c3.03,6.46 17.43,20.44 23.41,21.92 -1.19,-3.02 -3.07,-5.87 -4.03,-9.58 -2.15,-8.31 -2.65,-16.02 -0.11,-24.48 1.24,-4.11 2.74,-6.65 4.18,-9.97 -4.37,2.04 -21.62,17.96 -23.45,22.11zm-9.93 -0.33c5.12,12.25 15.87,24.03 29.61,31.85 19.02,10.82 44.57,12.78 63.86,7.75 -1.3,-2.68 -4.48,-5.69 -5.11,-8.46 -5.17,2.95 -11.15,4.63 -17.53,4.63 -19.54,0 -35.39,-15.84 -35.39,-35.39 0,-1.57 0.11,-3.12 0.31,-4.64 0.5,-4.03 1.73,-7.9 3.55,-11.44l0.02 -0.03c0.12,-0.24 0.25,-0.48 0.38,-0.72 1.3,-2.41 2.88,-4.65 4.69,-6.68 5.87,-6.63 14.17,-11.13 23.43,-11.86 17.45,-1.36 32.6,9.51 37.27,26.14 1.89,6.74 1.46,14.19 -0.8,20.85 -0.15,0.44 -0.31,0.86 -0.49,1.28 -0.53,1.35 -1.14,2.67 -1.83,3.94 -0.07,0.17 -0.14,0.35 -0.21,0.53 4.22,2 7.13,2.71 14.98,11.91 16.97,-11.5 23.03,-22.97 25.81,-29.33 -4.42,-8.73 -20.58,-23.7 -28.58,-29.19 -12.24,-8.41 -26.85,-13.1 -41.23,-13.54 -1.34,-0.04 -2.69,-0.03 -4.04,0.02 -16.05,0.66 -31.38,6.29 -44.5,16.28 -10.12,7.69 -17.2,16.21 -24.2,26.1z"/>
   <path class="fil0" d="M73.84 18.44c16.02,0 29,12.98 29,28.99 0,16.02 -12.98,29 -29,29 -16.01,0 -28.99,-12.98 -28.99,-29 0,-16.01 12.98,-28.99 28.99,-28.99zm0 7.5c11.88,0 21.5,9.62 21.5,21.5 0,11.87 -9.62,21.49 -21.5,21.49 -11.87,0 -21.49,-9.62 -21.49,-21.49 0,-11.88 9.62,-21.5 21.49,-21.5z"/>
   <path class="fil0" d="M96.04 74.48l0.05 -0.04 -4.64 -4.64c-0.56,-0.56 -0.56,-1.48 0,-2.05l2.16 -2.16c0.56,-0.56 1.48,-0.56 2.05,0l4.64 4.64 0.48 -0.48c1.23,-1.24 3.25,-1.23 4.48,0l15.6 15.59c1.23,1.23 1.23,3.25 -0.01,4.48l-4.73 4.74c-1.23,1.23 -3.25,1.23 -4.48,0l-15.6 -15.6c-1.23,-1.23 -1.23,-3.24 0,-4.48z"/>
  </g>
 </g>
</svg>
